<?xml version="1.0" encoding="utf-8"?>
<!-- Svg Vector Icons : http://www.onlinewebfonts.com/icon -->
<!DOCTYPE svg PUBLIC "-//W3C//DTD SVG 1.1//EN" "http://www.w3.org/Graphics/SVG/1.1/DTD/svg11.dtd">
<svg version="1.1" xmlns="http://www.w3.org/2000/svg" xmlns:xlink="http://www.w3.org/1999/xlink" x="0px" y="0px" viewBox="0 0 1000 1000" enable-background="new 0 0 1000 1000" xml:space="preserve">
<metadata> Svg Vector Icons : http://www.onlinewebfonts.com/icon </metadata>
<g><g transform="translate(0.000000,511.000000) scale(0.100000,-0.100000)"><path d="M147.9,2426.7c-42.1-45.9-57.3-103.2-42.1-152.9c11.5-42.1,1162.2-1081.9,2550-2312.9c1888.6-1670.6,2553.8-2240.3,2622.6-2240.3c72.7,0,588.8,493.2,2335.9,2225c1231,1223.4,2255.6,2263.2,2274.7,2309.1c45.8,107-57.3,244.7-183.5,244.7c-49.7,0-470.2-386.1-1227.2-1135.4C7847.4,737,6864.9-237.9,6295.3-803.7L5259.2-1828.3L2816.3,335.6C1214.5,1753.9,346.6,2499.4,293.1,2499.4C251.1,2499.4,182.3,2465,147.9,2426.7z"/></g></g>
</svg>