<svg xmlns="http://www.w3.org/2000/svg" viewBox="0 0 1333.34 1253.15" shape-rendering="geometricPrecision" text-rendering="geometricPrecision" image-rendering="optimizeQuality" fill-rule="evenodd" clip-rule="evenodd"><path d="M390.64 746.27c0 8.64-7.01 15.65-15.65 15.65s-15.64-7-15.64-15.65v-382.7H31.28v771.31h54.15c8.64 0 15.64 7.01 15.64 15.65s-7 15.64-15.64 15.64h-69.8c-8.64 0-15.65-7-15.65-15.64V355.25c0-6.33 2.58-12.08 6.73-16.23a22.91 22.91 0 0116.23-6.73h336.39V27.49c0-7.53 3.09-14.38 8.06-19.36v-.06C372.36 3.1 379.24.01 386.82.01h557.2c7.57 0 14.45 3.09 19.43 8.06l1.15 1.29c4.29 4.85 6.9 11.2 6.9 18.13v304.8h338.8c6.31 0 12.04 2.59 16.21 6.75l.06.06c4.16 4.17 6.75 9.9 6.75 16.21v795.23c0 8.64-7 15.64-15.65 15.64h-99.13c-8.64 0-15.64-7-15.64-15.64s7-15.65 15.64-15.65h83.48V363.58H971.49v378.15c0 8.64-7 15.65-15.64 15.65s-15.65-7.01-15.65-15.65V31.3H390.61v714.98zm663.55-2.51h172.57c1.45 0 2.63.86 2.63 1.9v50.96c0 1.04-1.2 1.91-2.63 1.91h-172.57c-1.44 0-2.64-.85-2.64-1.91v-50.96c0-1.04 1.19-1.9 2.64-1.9zm-948.81 0h172.57c1.45 0 2.63.86 2.63 1.9v50.96c0 1.04-1.2 1.91-2.63 1.91H105.38c-1.44 0-2.64-.85-2.64-1.91v-50.96c0-1.04 1.19-1.9 2.64-1.9zm355.3-651.85H870.2c6.89 0 12.52 5.63 12.52 12.52v133.61c0 6.89-5.63 12.52-12.52 12.52H460.68c-6.89 0-12.52-5.63-12.52-12.52V104.43c0-6.89 5.63-12.52 12.52-12.52zm596.21 1047.63c-11.41-22.89-25.87-42.31-42.7-60.55 31.73 12.28 64.1 24.4 88.09 39.45 43.58 27.33 46.93 60.48 50.44 107.92H936.41c0-.35-.01-.71-.03-1.06l-4.06-33.99 15.54 13.51 76-66.08 33.03.8zM283 1085.92l27.46 80.75 13.81-47.92-6.77-7.41c-3.05-4.45-3.72-8.35-2.02-11.7 3.66-7.25 11.25-5.9 18.34-5.9 7.42 0 16.59-1.4 18.92 7.89.78 3.11-.2 6.36-2.38 9.72l-6.77 7.4 13.81 47.92 24.86-80.75c3.6 3.24 8.63 5.97 14.52 8.33-2.05 4.32-3.89 8.83-5.5 13.53-4.2 12.22-6.94 25.82-8.09 40.87h.07c-.03.36-.05.71-.07 1.07l-5.98 76.63H178.37c-11.91-.91-17.96-7.06-18.97-17.72l4.13-42.36c1.15-15.07 5.37-26.96 12.26-36.05 4.54-6 10.19-10.43 16.43-13.91 19.75-11.02 72.84-14.26 90.78-30.4zm-13.47-114.49c-2.67.22-4.72.83-6.14 1.79-.84.57-1.46 1.29-1.85 2.14-.46 1-.67 2.23-.63 3.66.13 4.47 2.51 10.39 7.14 17.26l.08.13 15.35 24.4c6.12 9.73 12.53 19.65 20.45 26.89 7.53 6.89 16.67 11.55 28.74 11.58 13.09.04 22.67-4.81 30.44-12.08 8.17-7.65 14.65-18.2 21.05-28.73l17.24-28.39c3.46-7.89 4.54-12.7 3.42-14.95-.69-1.39-3.53-1.78-8.28-1.38-2.99.69-6.13.11-9.43-1.64l8.63-25.87c-31.61-.39-53.23-5.9-78.81-22.24-8.41-5.37-10.93-11.5-19.35-10.91-6.35 1.22-11.69 4.07-15.93 8.63-4.07 4.38-7.13 10.34-9.14 18l5.08 30.99c-2.61 1.72-5.3 1.87-8.05.74zm136.79-7.62c3.74 1.09 6.45 3.22 8.11 6.56 2.61 5.27 1.61 13.09-3.3 24.22l-.02-.01c-.09.2-.2.41-.32.62L393.3 1024c-6.78 11.16-13.66 22.35-22.9 31-9.63 9.02-21.51 15.02-37.75 14.98-15.18-.04-26.6-5.83-35.96-14.39-8.98-8.21-15.81-18.75-22.3-29.06l-15.33-24.39c-5.72-8.53-8.69-16.37-8.87-22.83-.09-3.11.44-5.95 1.59-8.44 1.22-2.64 3.1-4.85 5.64-6.55 1.24-.84 2.65-1.54 4.2-2.11-.93-13.06-1.27-29.22-.65-42.81a58 58 0 011.89-9.94c3.92-14.01 13.76-25.29 25.93-33.04 4.3-2.73 8.98-5 13.96-6.8 29.48-10.66 68.55-4.83 89.47 17.8 8.52 9.22 13.86 21.44 15.02 37.61l-.93 38.78zm154.42-108.12c-3.42.39-6.08 1.26-7.99 2.55-1.25.84-2.17 1.91-2.76 3.18-.69 1.48-1 3.31-.94 5.44.19 6.68 3.76 15.5 10.65 25.74l.13.19 22.91 36.42c9.13 14.52 18.7 29.31 30.51 40.11 11.24 10.27 24.87 17.23 42.87 17.27 19.53.05 33.82-7.19 45.41-18.03 12.19-11.42 21.87-27.16 31.41-42.87l25.72-42.37c5.17-11.78 6.76-18.94 5.11-22.28-1.06-2.14-5.57-2.67-13.15-1.96-.58.05-1.14.04-1.69-.02-3.13.02-6.55-.8-10.27-2.54l11.59-38.61c-47.17-.57-79.44-8.81-117.61-33.19-12.54-8.01-16.32-17.17-28.88-16.29-9.48 1.83-17.44 6.07-23.77 12.89-6.07 6.54-10.65 15.44-13.64 26.86l8.19 46.73c-4.93 2.46-9.5 2.64-13.77.79h-.01zM582 1026.4l40.98 120.52 20.61-71.52-10.1-11.05c-4.56-6.64-5.56-12.46-3.02-17.46 5.47-10.82 16.79-8.81 27.37-8.81 11.08 0 24.77-2.1 28.24 11.77 1.16 4.64-.3 9.49-3.55 14.49l-10.1 11.05 20.61 71.52 37.11-120.52c26.77 24.09 95.69 28.93 125.17 45.36 7.97 4.44 15.3 9.94 21.49 17.04.11-.81.35-1.59.73-2.33 3.26-6.44 10-5.24 16.3-5.24 6.59 0 14.75-1.24 16.81 7.01.69 2.76-.18 5.66-2.11 8.63l-6.01 6.58 12.27 42.58-15.72 12.43 5.23 68.23c-1.5 15.93-10.54 25.1-28.31 26.46H436.2c-17.78-1.36-26.82-10.54-28.31-26.46l6.15-80.37c1.73-22.5 8.03-40.23 18.31-53.8 6.78-8.94 15.2-15.56 24.52-20.76 29.48-16.44 98.39-21.27 125.16-45.36zm184.04-182.29c5.59 1.63 9.65 4.82 12.13 9.81 3.91 7.89 2.4 19.56-4.92 36.18l-.02-.01c-.14.31-.3.62-.48.92L746.65 934c-10.11 16.66-20.39 33.36-34.18 46.26-14.39 13.46-32.12 22.43-56.37 22.37-22.66-.06-39.71-8.71-53.69-21.49-13.41-12.26-23.6-27.98-33.28-43.38l-22.91-36.43c-8.52-12.72-12.96-24.41-13.23-34.05-.13-4.66.67-8.89 2.39-12.62 1.83-3.94 4.64-7.24 8.43-9.79 1.87-1.26 3.97-2.31 6.3-3.15-1.39-19.48-1.89-43.59-.96-63.86.5-4.94 1.44-9.89 2.83-14.84 5.85-20.91 20.53-37.74 38.69-49.31 6.4-4.08 13.41-7.46 20.83-10.14 43.98-15.91 102.3-7.22 133.52 26.56 12.72 13.76 20.69 32 22.42 56.13l-1.39 57.84zm79.53 199.02l20.2-.53 16.76-.44c-19.58-60.23-13.01-115.57 34.08-162.62 8 25.83 25.91 47.16 56.38 62.91 14.58 10.83 28.67 23.9 42.32 38.91 2.42-9.95-6.81-22.06-18-34.54 10.35 5.12 19.87 12.26 26.61 26.05 7.81 15.98 7.72 29.44 5.14 46.78-1.2 8.07-3.17 15.59-5.97 22.51h27.86c29.39-62.94 10.76-156.36-49.37-195.96-18.44-12.14-31.71-11.68-53.35-11.67-24.78.02-37.44.79-58.65 14.82-31.3 20.71-50.52 56.51-58.61 106.23-1.66 24.74-2.75 67.6 14.59 87.54v.01zm208.62-410.88h172.57c1.45 0 2.63.87 2.63 1.91v50.96c0 1.03-1.2 1.9-2.63 1.9h-172.57c-1.44 0-2.64-.86-2.64-1.9v-50.96c0-1.05 1.19-1.91 2.64-1.91zm0-111.51h172.57c1.45 0 2.63.87 2.63 1.9v50.96c0 1.04-1.2 1.91-2.63 1.91h-172.57c-1.44 0-2.64-.86-2.64-1.91v-50.96c0-1.04 1.19-1.9 2.64-1.9zM105.38 632.25h172.57c1.45 0 2.63.87 2.63 1.91v50.96c0 1.03-1.2 1.9-2.63 1.9H105.38c-1.44 0-2.64-.86-2.64-1.9v-50.96c0-1.05 1.19-1.91 2.64-1.91zm0-111.51h172.57c1.45 0 2.63.87 2.63 1.9v50.96c0 1.04-1.2 1.91-2.63 1.91H105.38c-1.44 0-2.64-.86-2.64-1.91v-50.96c0-1.04 1.19-1.9 2.64-1.9zm672.33 11.83h92.08a2.65 2.65 0 012.64 2.64v92.08a2.65 2.65 0 01-2.64 2.64h-92.08a2.65 2.65 0 01-2.64-2.64v-92.08a2.65 2.65 0 012.64-2.64zm-158.31 0h92.08a2.65 2.65 0 012.64 2.64v92.08a2.65 2.65 0 01-2.64 2.64H619.4c-1.46 0-2.64-1.19-2.64-2.64v-92.08c0-1.45 1.18-2.64 2.64-2.64zm-158.31 0h92.08a2.65 2.65 0 012.64 2.64v92.08a2.65 2.65 0 01-2.64 2.64h-92.08a2.65 2.65 0 01-2.64-2.64v-92.08a2.65 2.65 0 012.64-2.64zm316.62-178.78h92.08c1.45 0 2.64 1.18 2.64 2.64v92.08a2.65 2.65 0 01-2.64 2.64h-92.08a2.65 2.65 0 01-2.64-2.64v-92.08c0-1.46 1.19-2.64 2.64-2.64zm-158.31 0h92.08c1.45 0 2.64 1.18 2.64 2.64v92.08a2.65 2.65 0 01-2.64 2.64H619.4c-1.46 0-2.64-1.19-2.64-2.64v-92.08c0-1.46 1.18-2.64 2.64-2.64zm-158.31 0h92.08c1.45 0 2.64 1.18 2.64 2.64v92.08a2.65 2.65 0 01-2.64 2.64h-92.08a2.65 2.65 0 01-2.64-2.64v-92.08c0-1.46 1.19-2.64 2.64-2.64z" fill-rule="nonzero"/></svg>