<svg height="496pt" viewBox="0 0 496 496" width="496pt" xmlns="http://www.w3.org/2000/svg"><path d="m136 168c0 4.417969-3.582031 8-8 8s-8-3.582031-8-8 3.582031-8 8-8 8 3.582031 8 8zm0 0"/><path d="m216 168c0 4.417969-3.582031 8-8 8s-8-3.582031-8-8 3.582031-8 8-8 8 3.582031 8 8zm0 0"/><path d="m200 216h-16c0 8.824219-7.175781 16-16 16s-16-7.175781-16-16h-16c0 17.648438 14.351562 32 32 32s32-14.351562 32-32zm0 0"/><path d="m472 304h-192c-4.496094 0-8.65625 1.320312-12.265625 3.480469l-51.734375-17.25v-16.574219c17.679688-11.558594 30.910156-29.304688 36.710938-50.136719 19.816406-2.359375 35.289062-19.078125 35.289062-39.519531v-64c0-66.167969-53.832031-120-120-120s-120 53.832031-120 120v64c0 20.441406 15.472656 37.160156 35.289062 39.519531 5.789063 20.839844 19.03125 38.578125 36.710938 50.136719v16.574219l-81.710938 27.242187c-22.898437 7.632813-38.289062 28.984375-38.289062 53.128906v77.398438h257.472656c3.3125 9.289062 12.113282 16 22.527344 16h48v16h-16v16h128v-16h-16v-16h48c13.230469 0 24-10.769531 24-24v-112c0-13.230469-10.769531-24-24-24zm-200 24c0-4.40625 3.585938-8 8-8h192c4.414062 0 8 3.59375 8 8v88h-208zm-16 0v104h-80v-76.6875l33.457031 33.457031 43.367188-69.394531 4.390625 1.464844c-.71875 2.273437-1.214844 4.648437-1.214844 7.160156zm-18.785156-13.832031-30.664063 49.0625-27.238281-27.230469 30.847656-30.847656zm18.449218-107.535157c.167969-2.199218.335938-4.394531.335938-6.632812v-38.527344c9.289062 3.3125 16 12.113282 16 22.527344 0 10.535156-6.871094 19.414062-16.335938 22.632812zm-87.664062-190.632812c57.34375 0 104 46.65625 104 104v32.207031c-4.671875-3.535156-10.054688-6.183593-16-7.390625v-.816406c0-8.824219-7.175781-16-16-16h-144c-8.824219 0-16 7.175781-16 16v.808594c-5.945312 1.214844-11.328125 3.855468-16 7.390625v-32.199219c0-57.34375 46.65625-104 104-104zm-104 168c0-10.414062 6.710938-19.214844 16-22.527344v38.527344c0 2.238281.167969 4.433594.335938 6.632812-9.464844-3.21875-16.335938-12.097656-16.335938-22.632812zm32 16v-56h144v56c0 39.695312-32.296875 72-72 72s-72-32.304688-72-72zm72 88c11.296875 0 22.0625-2.214844 32-6.113281v10.800781l-32 32-32-32v-10.800781c9.9375 3.898437 20.703125 6.113281 32 6.113281zm-42.160156 17.152344 30.847656 30.847656-27.230469 27.230469-30.664062-49.0625zm-82.488282 27.496094 39.824219-13.273438 43.367188 69.402344 33.457031-33.464844v76.6875h-80v-56h-16v24h-48v-29.398438c0-17.25 10.992188-32.496093 27.351562-37.953124zm-27.351562 83.351562h48v16h-48zm392 64h-64v-16h64zm64-32h-192c-4.414062 0-8-3.59375-8-8v-8h208v8c0 4.40625-3.585938 8-8 8zm0 0"/><path d="m412.800781 398.398438 40.535157-30.398438-40.535157-30.398438-9.601562 12.796876 23.464843 17.601562-23.464843 17.601562zm0 0"/><path d="m348.800781 385.601562-23.464843-17.601562 23.464843-17.601562-9.601562-12.796876-40.535157 30.398438 40.535157 30.398438zm0 0"/><path d="m354.773438 397.8125 27.707031-65.804688 14.753906 6.214844-27.710937 65.800782zm0 0"/></svg>