<svg height="648pt" viewBox="-20 -24 648.00133 648" width="648pt" xmlns="http://www.w3.org/2000/svg"><path d="m303.75 119.546875c33.09375 0 59.921875-26.832031 59.921875-59.925781 0-33.097656-26.828125-59.921875-59.921875-59.921875-33.097656 0-59.921875 26.824219-59.921875 59.921875.035156 33.082031 26.839844 59.890625 59.921875 59.925781zm0-99.875c22.0625 0 39.949219 17.890625 39.949219 39.949219 0 22.0625-17.886719 39.949218-39.949219 39.949218s-39.949219-17.886718-39.949219-39.949218c0-22.058594 17.886719-39.949219 39.949219-39.949219zm0 0"/><path d="m433.582031 229.402344c-.011719-29.722656-14.714843-57.511719-39.277343-74.242188-14.890626-10.238281-32.542969-15.6875-50.605469-15.640625h-79.898438c-49.617187.058594-89.824219 40.265625-89.882812 89.882813v79.898437c.039062 34.722657 25.558593 64.152344 59.921875 69.109375v220.519532h19.976562v-399.488282h-19.976562v158.796875c-23.234375-4.78125-39.917969-25.21875-39.949219-48.9375v-79.898437c.046875-38.589844 31.316406-69.863282 69.910156-69.910156h79.898438c14.035156-.042969 27.753906 4.195312 39.320312 12.144531 19.117188 13.015625 30.566407 34.636719 30.589844 57.765625v79.898437c-.019531 19.554688-11.445313 37.296875-29.246094 45.402344-3.40625 1.609375-7 2.796875-10.703125 3.535156v-158.796875h-19.972656v399.488282h19.972656v-220.5c6.609375-.886719 13.039063-2.773438 19.085938-5.589844 24.867187-11.367188 40.824218-36.195313 40.835937-63.539063zm0 0"/><path d="m293.761719 369.222656h19.976562v229.707032h-19.976562zm0 0"/><path d="m38.230469 309.300781h115.710937v-19.972656h-115.710937l25.324219-25.328125-14.117188-14.125-49.4375 49.4375 49.4375 49.433594 14.117188-14.117188zm0 0"/><path d="m558.0625 249.875-14.121094 14.125 25.328125 25.328125h-115.710937v19.972656h115.710937l-25.328125 25.328125 14.121094 14.117188 49.4375-49.433594zm0 0"/><path d="m74.046875 83.730469 92.808594 92.8125 14.125-14.125-92.8125-92.808594h35.8125v-19.972656h-69.910157v69.910156h19.976563zm0 0"/><path d="m440.644531 176.542969 92.8125-92.8125v35.816406h19.972657v-69.910156h-69.910157v19.972656h35.8125l-92.808593 92.808594zm0 0"/><path d="m166.855469 422.085938-92.808594 92.8125v-35.816407h-19.976563v69.910157h69.910157v-19.972657h-35.8125l92.8125-92.8125zm0 0"/><path d="m533.457031 514.898438-92.8125-92.8125-14.121093 14.121093 92.808593 92.8125h-35.8125v19.972657h69.910157v-69.910157h-19.972657zm0 0"/></svg>