<?xml version="1.0" encoding="utf-8"?>
<!-- Svg Vector Icons : http://www.onlinewebfonts.com/icon -->
<!DOCTYPE svg PUBLIC "-//W3C//DTD SVG 1.1//EN" "http://www.w3.org/Graphics/SVG/1.1/DTD/svg11.dtd">
<svg version="1.1" xmlns="http://www.w3.org/2000/svg" xmlns:xlink="http://www.w3.org/1999/xlink" x="0px" y="0px" viewBox="0 0 1000 1000" enable-background="new 0 0 1000 1000" xml:space="preserve">
<metadata> Svg Vector Icons : http://www.onlinewebfonts.com/icon </metadata>
<g><path d="M877.2,361.2L877.2,361.2V149.8c0-77-62.9-139.8-140.6-139.8H177.8C100.3,10,37.2,72.9,37.2,150.4v699.2c0,77.6,62.9,140.4,140.5,140.4h137.3v-70H177.7c-39,0-70.5-31.5-70.5-70.4V150.4c0-38.8,31.7-70.4,70.6-70.4h558.8c39,0,70.6,31.5,70.6,69.8v211.4H877.2z"/><path d="M764.8,478.6L764.8,478.6h99L463.4,879L414,829.5l69.5,8.4l-7.8,64.8c-1.5,12.6,1,15.2,13.6,13.6l64.8-7.8l8.4,69.5l-49.5-49.5l400.4-400.4v99L764.8,478.6z M814.3,429.1l148.5,148.5L562.4,978l-64.8,7.8c-57.5,6.9-98.5-33.6-91.5-91.5l7.8-64.8L814.3,429.1L814.3,429.1z"/><path d="M282.2,290h350c19.3,0,35-15.7,35-35s-15.7-35-35-35h-350c-19.3,0-35,15.7-35,35S262.9,290,282.2,290L282.2,290z"/><path d="M282.2,500h280c19.3,0,35-15.7,35-35c0-19.3-15.7-35-35-35h-280c-19.3,0-35,15.7-35,35C247.2,484.3,262.9,500,282.2,500L282.2,500z"/><path d="M282.2,710h70c19.3,0,35-15.7,35-35c0-19.3-15.7-35-35-35h-70c-19.3,0-35,15.7-35,35C247.2,694.3,262.9,710,282.2,710L282.2,710z"/></g>
</svg>