<?xml version="1.0" encoding="iso-8859-1"?>
<!-- Generator: Adobe Illustrator 19.0.0, SVG Export Plug-In . SVG Version: 6.00 Build 0)  -->
<svg version="1.1" id="Layer_1" xmlns="http://www.w3.org/2000/svg" xmlns:xlink="http://www.w3.org/1999/xlink" x="0px" y="0px"
	 viewBox="0 0 512 512" style="enable-background:new 0 0 512 512;" xml:space="preserve">
<g>
	<g>
		<path d="M392.328,211.614v-89.699C392.328,54.365,337.514,0,269.963,0h-26.407c-67.551,0-122.651,54.365-122.651,121.915v89.699
			c-27.142,0.072-48.116,21.344-48.116,47.484v204.208c0,26.182,22.206,48.694,48.39,48.694h271.16
			c26.184,0,46.87-22.512,46.87-48.695V259.097C439.21,232.958,418.236,211.685,392.328,211.614z M145.581,121.915
			c0-53.944,44.031-97.241,97.976-97.241h26.407c53.945,0,97.69,43.297,97.69,97.241v90.287h-24.675v-90.287
			c0-40.339-32.675-72.566-73.015-72.566h-26.407c-40.339,0-73.301,32.226-73.301,72.566v90.287h-24.675V121.915z M318.304,121.915
			v90.287H194.93v-90.287c0-26.734,21.893-47.891,48.626-47.891h26.407C296.697,74.024,318.304,95.181,318.304,121.915z
			 M414.535,463.305c0,12.926-10.213,24.021-22.812,24.021H120.277c-12.599,0-22.812-11.095-22.812-24.021v-203.64
			c0-12.926,10.213-22.787,22.812-22.787h271.446c12.599,0,22.812,9.861,22.812,22.787V463.305z"/>
	</g>
</g>
<g>
	<g>
		<path d="M256.878,268.876c-31.649,0-57.705,25.828-57.705,57.575c0,17.112,8.095,33.147,20.432,44.095v70.514
			c0,6.813,6.14,12.954,12.954,12.954h49.349c6.814,0,11.721-6.142,11.721-12.954v-70.535
			c13.571-10.832,20.634-26.852,20.634-44.075C314.263,294.703,288.691,268.876,256.878,268.876z M274.845,354.034
			c-3.483,2.28-5.891,6.161-5.891,10.324v64.982H244.28v-64.982c0-4.163-1.791-8.045-5.274-10.324
			c-9.491-6.209-15.003-16.522-15.003-27.583c0-18.141,14.755-32.9,32.799-32.9c18.206,0,32.902,14.759,32.902,32.9
			C289.704,337.682,284.077,347.993,274.845,354.034z"/>
	</g>
</g>
<g>
</g>
<g>
</g>
<g>
</g>
<g>
</g>
<g>
</g>
<g>
</g>
<g>
</g>
<g>
</g>
<g>
</g>
<g>
</g>
<g>
</g>
<g>
</g>
<g>
</g>
<g>
</g>
<g>
</g>
</svg>
